<?xml version="1.0" encoding="utf-8"?>
<!-- Generator: Adobe Illustrator 22.1.0, SVG Export Plug-In . SVG Version: 6.00 Build 0)  -->
<svg version="1.1" id="Layer_1" xmlns="http://www.w3.org/2000/svg" xmlns:xlink="http://www.w3.org/1999/xlink" x="0px" y="0px"
	 viewBox="0 0 666 666" style="enable-background:new 0 0 666 666;" xml:space="preserve">
<g>
	<path d="M419,648.7c17,0,34,0.1,51-0.1c5.2-0.1,10.3,0.7,15.4,1.2c1.8,0.2,4.4,0.1,4.7,2.8c0.2,2.3-1.9,3.4-3.8,4.1
		c-6.5,2.5-13.4,3.8-20.3,4.6c-14.3,1.6-28.6,3.8-42.9,4.7c-13.6,0.8-27.3,1-40.9-0.3c-8.1-0.8-16.2-0.5-24.4-1.1
		c-19.2-1.5-38.4-2.1-57.6-3.3c-12.7-0.8-25.4-1.8-38.1-3c-4.3-0.4-8.5-1.3-12.7-2.1c-1.7-0.3-4-0.9-4.1-3c-0.1-2.7,2.7-2.6,4.4-3.2
		c3.1-1.1,6.6,0.6,10.2-1.6c-10-3.5-19.8-6-29.2-9.6c-33.8-12.9-64.9-30.3-93-53.1c-10.4-8.5-20.6-17.3-29.9-27
		c-19.7-20.3-37-42.5-51-67.2c-14.8-26.1-26.3-53.6-33.4-82.8c-4.3-17.7-6.8-35.7-8-54c-0.6-9.5-1.1-19-0.7-28.4
		c1.7-33.3,7.1-65.8,19.1-97.1c9.6-24.9,21.5-48.5,36.4-70.7c14.7-21.9,32.1-41.6,51.6-59.2c33.3-30.1,71.6-52,114.2-66.1
		c20-6.6,40.6-10.9,61.5-13.6c19.8-2.6,39.6-2.5,59.3-1.6c35.2,1.8,69,10.3,101.6,23.8c26.1,10.8,50.2,24.8,72.6,41.9
		c17.6,13.4,33.4,28.9,48.1,45.5c21.4,24,38.3,50.9,51.7,80c11.7,25.6,20.2,52.2,24.5,80.1c3,19.4,4.5,38.9,3.9,58.5
		c-0.7,26.1-4.6,51.8-11.8,76.9c-5.6,19.7-13,38.6-22.3,56.9c-11,21.5-24.3,41.4-39.7,60.1c-20.4,24.8-44.2,45.9-71,63.5
		c-28.5,18.7-59.2,32.8-92.2,41.4c-1.2,0.3-2.4,0.9-3.6,1.3C418.8,648.1,418.9,648.4,419,648.7z M338.5,148.3
		C234,150,152.7,230.8,151.7,333.6c-1,108.2,83.4,189.8,185.9,190.7c108,1,187.7-82.8,189.8-182.5C529.8,231.7,443,149,338.5,148.3z
		 M143.4,199.1c3.4,0,4.6,1.1,6,2c9.7,6.4,19.5,12.7,29,19.3c4.2,2.9,6.9,2.1,9.6-1.5c2.2-2.9,4.3-5.9,6.8-8.6
		c19.9-21.3,42.5-39.1,69.6-50.5c19.9-8.4,40.5-13.8,62-15c13.6-0.8,27.2-0.5,40.8,1.6c24.6,3.8,47.5,11.8,68.9,24.4
		c21.1,12.5,39.2,28.3,54.5,47.5c4.2,5.3,5.9,5.5,11.7,1.6c21.2-14.3,42.2-28.8,62.8-43.9c8.2-6,8.3-6.8,2.1-15
		c-12.7-16.7-26.9-31.9-43.2-45.3c-23-18.8-47.9-34.3-75.5-45.7c-30.5-12.6-62.2-19.6-95-21.6c-18.1-1.1-36.1,0.2-54.2,2.7
		c-29,4-56.7,12.4-83.1,24.7c-37.4,17.5-69.3,42.3-96.3,73.4c-4.1,4.7-7.6,10-11.3,15.2c-1.9,2.8-1.9,5.3,1.3,7.6
		c7.4,5.3,14.7,10.8,21.9,16.4c3.1,2.4,6,5,9.3,7.8c-1.8,0.9-2.4,0.2-3.1-0.2c-10.8-5.5-20.1-13.5-30.4-19.9c-4.6-2.8-6.8-2.5-9.9,2
		c-14.4,21.2-25.2,44.1-32.9,68.4c-7.5,23.7-12.3,48-13.8,73.1c-1,17.4-0.5,34.6,1.6,51.6c2.8,22.6,8.6,44.5,16.7,65.9
		c7.5,20,17.1,38.9,29,56.6c3.3,4.9,5.3,5.3,10,2c22.1-15.3,44.1-30.7,66.1-46.1c6.1-4.3,6.2-5.5,2.4-11.7
		c-5.8-9.7-11.1-19.6-15.2-30.2c-11-28.1-16-57-13.2-87.2c1.4-14.9,4.1-29.5,8.6-43.8c4.9-15.4,12.4-29.7,20.4-43.7
		c2.3-4.1,2.1-6.9-1.9-9.6c-5.2-3.5-10.3-7.3-15.3-11.1C154.8,208.4,149,204.7,143.4,199.1z M343.2,624.7c14.3,0.6,31.3-1,48.2-4.1
		c37.4-6.9,72.5-20.1,104.5-41c13.2-8.6,25.9-18,37.5-28.7c13.8-12.7,27.1-25.8,37.5-41.6c3.2-4.8,2.9-6.8-1.9-10.2
		c-22.4-16-44.5-32.4-67.7-47.3c-4.5-2.9-6.9-1.6-9.7,1.7c-2.8,3.3-5.2,6.9-8.2,10c-19.2,20.9-41.3,37.8-67.6,49
		c-31.5,13.5-64.3,18.4-98.3,14.6c-26.9-3-51.9-11.8-75.3-25.6c-15-8.9-28.2-19.9-40.5-32c-5.4-5.3-10.3-11.3-15.2-17.1
		c-2.4-3-4.8-3-7.7-1c-6.3,4.3-12.6,8.6-18.8,13c-16,11.2-32.1,22.4-48,33.8c-5.9,4.2-6.2,5.2-1.9,11.1
		c12.9,17.6,27.6,33.5,44.4,47.4c21,17.4,43.6,31.9,68.5,42.9C260.5,616.2,299.4,625.3,343.2,624.7z M628.8,339.3
		c-0.1-18.1-1.7-36.1-5.2-53.9c-7.3-37.9-20.9-73.3-42.5-105.4c-4.4-6.5-5.3-6.7-11.8-2.4c-16.6,11.3-33.2,22.6-49.7,34
		c-6.1,4.3-11.9,9-17.8,13.5c-2.4,1.8-2.7,3.8-1.2,6.5c3.4,5.9,6.9,11.7,9.9,17.9c10.5,22,18,44.8,20,69.3
		c1.5,18.7,0.8,37.1-2.8,55.5c-4.2,21.7-12.5,41.8-23.4,61c-6.1,10.8-5.9,10.3,3,17c1.2,0.9,2.3,1.9,3.6,2.7
		c19.7,13.5,39.4,27,59.1,40.5c7.1,4.9,9.3,4.4,13.8-3.1c7.3-12.1,14.1-24.4,19.8-37.3C620,418.2,628.2,379.6,628.8,339.3z"/>
	<path d="M312.7,334.9c-0.6-11.1,4.3-18.3,12.4-23.8c2-1.4,4.3-2.3,6.1,0.2c2,2.8-0.5,3.7-2.1,5c-10.7,8.1-13,19.9-5.9,30.1
		c4.9,7.1,16.1,9.9,24.5,6.2c8.1-3.6,13.4-13.3,11.8-21.6c-1.2-5.9-3.8-10.9-9.2-14.1c-2-1.2-4.9-2.7-2.9-5.8c2-3.1,4.5-0.7,6.5,0.4
		c10.2,5.7,15.2,19.9,11.1,31.3c-4,11.1-15.2,19.4-26.3,18.3c-11.9-1.2-21.2-6.6-25.4-19.7C312.5,338.9,312.9,336.4,312.7,334.9z"/>
	<path d="M342.3,316.2c0,3,0,6,0,9c0,2-0.8,3.1-3,3.1c-1.9,0-3.4-0.8-3.5-2.8c-0.1-6-0.2-11.9,0-17.9c0-2.2,1.9-3.3,3.8-3.2
		c1.9,0,2.8,1.4,2.8,3.4C342.3,310.6,342.3,313.4,342.3,316.2z"/>
	<path d="M338.3,85.7c6.6,0.1,11.1,4.4,11.1,10.8c0,5.7-5.1,10.9-10.8,10.8c-5.6,0-11-5.7-10.8-11.5
		C327.8,89.6,332.1,85.6,338.3,85.7z"/>
	<path d="M106.6,354c-0.6-0.4-1.4-0.9-2.1-1.6c-4-4-8-8-12-12c-2.1-2-2.2-3.9,0-6c4-4,8-8,12-12c1.4-1.4,2.8-2.3,4.6-0.4
		c1.9,2,0.6,3.3-0.8,4.6c-2.5,2.5-4.8,5.1-7.4,7.4c-2.2,2-2.5,3.5-0.2,5.7c2.9,2.9,5.5,6.1,8.3,9.2c0.8,0.9,1.6,1.8,0.8,3.1
		C109,353,108.3,353.9,106.6,354z"/>
	<path d="M341.4,589.3c-6.5,0-11.9-5.4-11.7-11.6c0.1-5.9,4.9-10.9,10.7-11c5.6-0.1,11.9,5.9,11.9,11.3
		C352.3,584,347.2,589.4,341.4,589.3z"/>
	<path d="M576.6,353.2c-1.7,0.1-2.8-0.3-3.4-1.5c-0.8-1.4-0.3-2.6,0.7-3.6c2.6-2.6,4.9-5.4,7.8-7.7c2.7-2.2,2.2-4.2,0.3-6.2
		c-2.5-2.7-5.1-5.3-7.7-7.9c-1.3-1.3-1.8-2.7-0.6-4.4c1.4-1.9,3-1.2,4.2,0c4.6,4.5,9.1,9.1,13.5,13.8c1,1.1,1,2.5-0.1,3.6
		c-4.3,4.4-8.7,8.7-13,13C577.9,352.9,577,353.1,576.6,353.2z"/>
</g>
</svg>
